<?xml version="1.0"?>
<svg xmlns="http://www.w3.org/2000/svg" height="512px" viewBox="-67 0 512 512" width="512px" class=""><g><path d="m20.925781 467.597656c0 24.484375 19.917969 44.402344 44.398438 44.402344h248.183593c24.484376 0 44.402344-19.917969 44.402344-44.402344v-297.585937h-336.984375zm230.238281-230.183594c0-8.285156 6.714844-15 15-15 8.28125 0 15 6.714844 15 15v177.183594c0 8.285156-6.71875 15-15 15-8.285156 0-15-6.714844-15-15zm-76.746093 0c0-8.285156 6.714843-15 15-15 8.28125 0 15 6.714844 15 15v177.183594c0 8.285156-6.71875 15-15 15-8.285157 0-15-6.714844-15-15zm-76.746094 0c0-8.285156 6.714844-15 15-15 8.28125 0 15 6.714844 15 15v177.183594c0 8.285156-6.71875 15-15 15-8.285156 0-15-6.714844-15-15zm0 0" data-original="#000000" class="active-path" data-old_color="#3465a4" fill="#3465a4"/><path d="m378.832031 125.511719c0-38.929688-31.671875-70.601563-70.601562-70.601563h-47.003907v-10.5c0-24.488281-19.921874-44.410156-44.414062-44.410156h-54.792969c-24.488281 0-44.414062 19.921875-44.414062 44.410156v10.5h-47.003907c-38.929687 0-70.601562 31.671875-70.601562 70.601563v14.5h378.832031zm-147.605469-70.601563h-83.621093v-10.5c0-7.945312 6.464843-14.410156 14.414062-14.410156h54.792969c7.949219 0 14.414062 6.464844 14.414062 14.410156zm0 0" data-original="#000000" class="active-path" data-old_color="#3465a4" fill="#3465a4"/></g> </svg>
